<svg width="1216" height="93" viewBox="0 0 1216 93" fill="none" xmlns="http://www.w3.org/2000/svg">
<g clip-path="url(#clip0_77_280)">
<path d="M55.7454 58.878C55.4403 58.1406 55.1544 57.3655 54.8493 56.7037L53.4385 53.5464L53.3813 53.4897C49.187 44.4147 44.7067 35.1884 39.9595 26.1134L39.7688 25.7353C39.2922 24.8467 38.8156 23.8636 38.3199 22.9561C37.7098 21.8784 37.1188 20.7251 36.1464 19.6286C35.1987 18.4812 34.0059 17.5568 32.6541 16.9221C31.3024 16.2873 29.8254 15.9581 28.3297 15.9581C26.8341 15.9581 25.3571 16.2873 24.0054 16.9221C22.6536 17.5568 21.4608 18.4812 20.513 19.6286C19.617 20.7251 18.9497 21.8784 18.3396 22.9561C17.863 23.9392 17.3864 24.9034 16.8907 25.792L16.7 26.1701C12.0291 35.2451 7.47249 44.4714 3.27816 53.5464L3.16377 53.6598C2.74434 54.643 2.24864 55.6639 1.77201 56.7605C1.46697 57.4222 1.16193 58.1406 0.856889 58.9347C0.0333377 61.014 -0.229648 63.2702 0.0938497 65.4809C0.417348 67.6917 1.31616 69.7807 2.70171 71.5421C4.08727 73.3035 5.91173 74.6765 7.9953 75.5258C10.0789 76.375 12.3496 76.6712 14.5838 76.3851C16.7257 76.1055 18.7882 75.398 20.6465 74.3055C23.125 72.9253 25.5081 70.9212 28.1772 68.0286C30.8463 70.9212 33.2867 72.9253 35.7079 74.3244C38.0364 75.6797 40.6732 76.4277 43.3721 76.4986C46.4976 76.5115 49.5222 75.4026 51.8875 73.3766C54.2529 71.3507 55.7992 68.5445 56.2411 65.4762C56.7517 63.2713 56.5789 60.9649 55.7454 58.8591V58.878ZM28.3679 62.0164C25.0887 57.857 22.9534 54.038 22.2289 50.7672C21.9287 49.5552 21.864 48.2976 22.0382 47.0616C22.1717 46.0973 22.5339 45.2466 23.0296 44.5281C24.1735 42.8833 26.1754 41.8623 28.3679 41.8623C29.4091 41.8308 30.4419 42.0561 31.3736 42.5181C32.3053 42.9801 33.1068 43.6643 33.7061 44.5092C34.2018 45.2655 34.564 46.0973 34.6784 47.0616C34.8691 48.1581 34.7928 49.4248 34.4878 50.7672C33.7633 53.9812 31.628 57.8381 28.3679 62.0164ZM52.6568 64.8145C52.4402 66.3723 51.8158 67.8466 50.8457 69.0905C49.8756 70.3345 48.5938 71.3046 47.1279 71.9044C45.679 72.5094 44.0775 72.6795 42.5142 72.5094C40.989 72.3203 39.4638 71.8287 37.9004 70.9212C35.3047 69.3303 32.9707 67.3536 30.9798 65.0603C34.9835 60.1447 37.4047 55.6639 38.3199 51.6747C38.7584 49.7841 38.8156 48.0825 38.6249 46.5133C38.3868 45.0259 37.8275 43.6071 36.9853 42.3539C36.0237 40.995 34.7401 39.8912 33.2474 39.1396C31.7548 38.388 30.0988 38.0115 28.4251 38.0433C24.898 38.0433 21.7523 39.6692 19.8458 42.335C18.9875 43.585 18.4328 45.0151 18.2252 46.5133C17.9774 48.1014 18.0346 49.8597 18.5303 51.6747C19.4454 55.6639 21.9239 60.2014 25.8703 65.0981C23.9133 67.4352 21.5737 69.4293 18.9497 70.9969C17.3673 71.9044 15.8611 72.377 14.3359 72.5661C11.964 72.8674 9.56803 72.2281 7.66878 70.7872C5.76954 69.3463 4.52054 67.2203 4.19329 64.8712C4.00263 63.3587 4.13609 61.8462 4.74617 60.1447C4.93683 59.5397 5.2228 58.9347 5.52784 58.2162C5.94728 57.2331 6.44297 56.2122 6.9196 55.1912L6.99586 55.0589C11.1139 46.0406 15.6133 36.8333 20.2843 27.815L20.4749 27.4369C20.9515 26.5294 21.4282 25.5651 21.9239 24.6576C22.4195 23.6934 22.9534 22.767 23.6397 22.0108C24.2338 21.3075 24.9761 20.7419 25.8144 20.3539C26.6528 19.9658 27.5666 19.7647 28.4918 19.7647C29.4169 19.7647 30.3308 19.9658 31.1691 20.3539C32.0074 20.7419 32.7498 21.3075 33.3439 22.0108C34.0111 22.767 34.564 23.6934 35.0597 24.6576C35.5364 25.5651 36.013 26.5483 36.5087 27.4369L36.6993 27.815C41.3512 36.8333 45.8506 46.0406 50.0449 55.0589L50.1021 55.1156C50.5978 56.0987 51.0172 57.1953 51.4939 58.1406C51.7989 58.878 52.1039 59.4641 52.2946 60.088C52.6568 61.7895 52.8475 63.302 52.6568 64.8145ZM79.1955 61.6005C77.7589 61.6213 76.3359 61.3211 75.0323 60.7222C73.7286 60.1232 72.5776 59.2409 71.6648 58.1406C69.6135 55.7962 68.5248 52.7733 68.6143 49.6706C68.583 46.5004 69.7068 43.4256 71.7792 41.0116C72.7377 39.8973 73.931 39.0049 75.2749 38.3973C76.6189 37.7898 78.0808 37.4818 79.5577 37.495C80.9474 37.4573 82.324 37.7706 83.558 38.4056C84.792 39.0407 85.8429 39.9764 86.6118 41.125L86.8025 38.1567H92.3695V60.9955H86.7834L86.5928 57.668C85.8 58.8943 84.7042 59.8994 83.4095 60.5876C82.1149 61.2759 80.6643 61.6246 79.1955 61.6005ZM80.6444 56.1555C81.7502 56.1555 82.7225 55.853 83.6377 55.3047C84.4765 54.6997 85.1629 53.9056 85.6967 52.9414C86.1733 51.9772 86.4212 50.8239 86.4212 49.5383C86.4955 48.4217 86.2763 47.305 85.7851 46.2976C85.2938 45.2902 84.5473 44.4264 83.6186 43.7908C82.7262 43.2394 81.6959 42.9471 80.6444 42.9471C79.593 42.9471 78.5627 43.2394 77.6703 43.7908C76.8314 44.3958 76.1451 45.1898 75.6112 46.1541C75.1071 47.2174 74.8591 48.3825 74.8868 49.5572C74.8124 50.6738 75.0316 51.7904 75.5229 52.7979C76.0141 53.8053 76.7606 54.6691 77.6893 55.3047C78.5854 55.853 79.5577 56.1555 80.6444 56.1555ZM101.902 31.9933C101.902 32.655 101.788 33.26 101.483 33.7516C101.178 34.2242 100.758 34.6591 100.205 34.9616C99.6524 35.2641 99.0613 35.3775 98.4513 35.3775C97.8412 35.3775 97.2311 35.2641 96.6782 34.9616C96.1553 34.6729 95.7156 34.2563 95.4008 33.7516C95.1056 33.213 94.9608 32.606 94.9814 31.9933C94.9814 31.3126 95.1149 30.7076 95.4008 30.235C95.7059 29.6678 96.1444 29.3275 96.6782 29.025C97.2311 28.7225 97.8221 28.5901 98.4513 28.5901C99.0581 28.5763 99.6582 28.7188 100.193 29.0038C100.728 29.2888 101.179 29.7065 101.502 30.2161C101.779 30.7673 101.917 31.3774 101.902 31.9933ZM95.4199 60.9198V38.1189H101.483V60.9576H95.4008L95.4199 60.9198ZM117.688 44.0933V44.1689C117.402 44.0366 117.021 43.9798 116.735 43.9231C116.353 43.8475 116.048 43.8475 115.686 43.8475C113.989 43.8475 112.712 44.3391 111.873 45.36C110.958 46.3998 110.539 47.8556 110.539 49.7273V60.9387H104.457V38.1H110.043L110.234 41.5598C110.844 40.3498 111.568 39.4423 112.598 38.7617C113.622 38.1004 114.827 37.7701 116.048 37.8164C116.487 37.8164 116.906 37.8542 117.269 37.9298C117.459 37.9866 117.574 37.9866 117.688 38.0433V44.0933ZM120.128 60.9198V28.7414H126.191V41.0305C127.049 39.9339 128.021 39.0831 129.241 38.4214C131.173 37.4822 133.368 37.2158 135.471 37.6651C137.574 38.1145 139.463 39.2534 140.833 40.8981C142.889 43.2474 143.978 46.2779 143.883 49.387C143.915 52.5572 142.791 55.632 140.719 58.0461C139.76 59.1604 138.567 60.0527 137.223 60.6603C135.879 61.2679 134.417 61.5759 132.94 61.5626C131.55 61.6004 130.174 61.287 128.94 60.652C127.706 60.017 126.655 59.0812 125.886 57.9326L125.695 60.9009L120.128 60.9576V60.9198ZM131.853 56.1555C132.94 56.1555 133.912 55.853 134.828 55.3047C135.666 54.6997 136.353 53.9056 136.887 52.9414C137.382 51.9772 137.611 50.8239 137.611 49.5383C137.611 48.2716 137.382 47.1183 136.887 46.1541C136.386 45.2243 135.682 44.417 134.828 43.7908C133.935 43.2394 132.905 42.9471 131.853 42.9471C130.802 42.9471 129.772 43.2394 128.879 43.7908C128.021 44.3958 127.354 45.1898 126.801 46.1541C126.297 47.2174 126.049 48.3825 126.077 49.5572C126.002 50.6738 126.221 51.7904 126.713 52.7979C127.204 53.8053 127.95 54.6691 128.879 55.3047C129.775 55.853 130.748 56.1555 131.853 56.1555ZM146.171 60.9387V38.1H151.757L151.948 41.0683C152.65 39.9305 153.646 38.9993 154.832 38.3711C156.019 37.7429 157.353 37.4404 158.697 37.495C160.234 37.4687 161.744 37.8922 163.04 38.7128C164.335 39.5333 165.358 40.7143 165.98 42.1081C166.647 43.545 167.009 45.3222 167.009 47.3073V60.9955H160.928V48.1014C160.928 46.5133 160.565 45.2655 159.841 44.3391C159.116 43.4316 158.125 42.94 156.867 42.94C155.952 42.94 155.151 43.1291 154.446 43.545C153.778 43.9798 153.225 44.5281 152.806 45.3033C152.382 46.0868 152.172 46.9667 152.196 47.8556V60.9387H146.171ZM170.041 60.9387V28.7225H176.123V41.0116C176.946 39.9089 178.018 39.0118 179.252 38.3915C180.487 37.7713 181.85 37.4449 183.234 37.4383C184.671 37.4174 186.093 37.7176 187.397 38.3166C188.701 38.9155 189.852 39.7978 190.765 40.8981C192.806 43.2473 193.887 46.2685 193.796 49.3681C193.829 52.5386 192.705 55.614 190.631 58.0272C189.673 59.1415 188.479 60.0338 187.135 60.6414C185.791 61.249 184.33 61.557 182.853 61.5437C181.463 61.5815 180.086 61.2681 178.852 60.6331C177.618 59.9981 176.567 59.0623 175.798 57.9137L175.627 60.882L170.041 60.9387ZM181.823 56.1555C182.929 56.1555 183.901 55.853 184.797 55.3047C185.655 54.6997 186.322 53.9056 186.875 52.9414C187.352 51.9772 187.6 50.8239 187.6 49.5383C187.674 48.4217 187.455 47.305 186.964 46.2976C186.472 45.2902 185.726 44.4264 184.797 43.7908C183.905 43.2394 182.874 42.9471 181.823 42.9471C180.772 42.9471 179.741 43.2394 178.849 43.7908C178.01 44.3958 177.324 45.1898 176.79 46.1541C176.258 47.2079 176.008 48.3799 176.065 49.5572C175.991 50.6738 176.21 51.7904 176.701 52.7979C177.193 53.8053 177.939 54.6691 178.868 55.3047C179.764 55.853 180.679 56.1555 181.823 56.1555Z" fill="#E3E4E6" fill-opacity="0.55"/>
</g>
<path d="M406.226 47.026C406.226 55.4237 399.56 61.6118 391.379 61.6118C383.198 61.6118 376.532 55.4237 376.532 47.026C376.532 38.5692 383.198 32.4403 391.379 32.4403C399.56 32.4403 406.226 38.5692 406.226 47.026ZM399.726 47.026C399.726 41.7783 395.863 38.1878 391.379 38.1878C386.895 38.1878 383.031 41.7783 383.031 47.026C383.031 52.2211 386.895 55.8643 391.379 55.8643C395.863 55.8643 399.726 52.2146 399.726 47.026Z" fill="#E3E4E6" fill-opacity="0.55"/>
<path d="M438.255 47.026C438.255 55.4237 431.589 61.6118 423.408 61.6118C415.227 61.6118 408.561 55.4237 408.561 47.026C408.561 38.5758 415.227 32.4403 423.408 32.4403C431.589 32.4403 438.255 38.5692 438.255 47.026ZM431.756 47.026C431.756 41.7783 427.892 38.1878 423.408 38.1878C418.924 38.1878 415.06 41.7783 415.06 47.026C415.06 52.2211 418.924 55.8643 423.408 55.8643C427.892 55.8643 431.756 52.2146 431.756 47.026Z" fill="#E3E4E6" fill-opacity="0.55"/>
<path d="M468.95 33.3215V59.5074C468.95 70.2791 462.504 74.6785 454.884 74.6785C447.71 74.6785 443.393 69.9503 441.765 66.0835L447.423 63.7622C448.431 66.1361 450.9 68.9375 454.877 68.9375C459.755 68.9375 462.778 65.9717 462.778 60.3886V58.2909H462.551C461.096 60.0598 458.293 61.6052 454.757 61.6052C447.357 61.6052 440.577 55.2527 440.577 47.0786C440.577 38.8454 447.357 32.4403 454.757 32.4403C458.287 32.4403 461.089 33.9856 462.551 35.702H462.778V33.328H468.95V33.3215ZM463.238 47.0786C463.238 41.9427 459.761 38.1878 455.337 38.1878C450.853 38.1878 447.096 41.9427 447.096 47.0786C447.096 52.1619 450.853 55.8643 455.337 55.8643C459.761 55.8643 463.238 52.1619 463.238 47.0786Z" fill="#E3E4E6" fill-opacity="0.55"/>
<path d="M479.126 17.9728V60.7174H472.787V17.9728H479.126Z" fill="#E3E4E6" fill-opacity="0.55"/>
<path d="M503.829 51.8265L508.873 55.1409C507.245 57.5148 503.322 61.6051 496.542 61.6051C488.134 61.6051 481.855 55.2 481.855 47.0194C481.855 38.3455 488.188 32.4336 495.815 32.4336C503.495 32.4336 507.252 38.4573 508.48 41.7125L509.154 43.3697L489.369 51.4451C490.884 54.3715 493.239 55.8642 496.542 55.8642C499.852 55.8642 502.147 54.2597 503.829 51.8265ZM488.301 46.5788L501.527 41.1667C500.799 39.3451 498.611 38.0759 496.035 38.0759C492.732 38.0759 488.134 40.9497 488.301 46.5788Z" fill="#E3E4E6" fill-opacity="0.55"/>
<path d="M352.537 43.2316V37.0435H373.696C373.903 38.122 374.01 39.3978 374.01 40.7787C374.01 45.4214 372.722 51.1624 368.571 55.2527C364.534 59.3956 359.376 61.6052 352.543 61.6052C339.878 61.6052 329.229 51.4386 329.229 38.9572C329.229 26.4757 339.878 16.3091 352.543 16.3091C359.55 16.3091 364.541 19.0185 368.291 22.5498L363.86 26.9163C361.171 24.4306 357.528 22.4972 352.537 22.4972C343.288 22.4972 336.055 29.8427 336.055 38.9572C336.055 48.0716 343.288 55.4171 352.537 55.4171C358.535 55.4171 361.952 53.0431 364.141 50.8862C365.916 49.1369 367.083 46.638 367.544 43.225L352.537 43.2316Z" fill="#E3E4E6" fill-opacity="0.55"/>
<g clip-path="url(#clip1_77_280)">
<path d="M738.06 50.5178L736.489 54.9598H736.358C736.096 53.9582 735.616 52.434 734.83 50.6049L726.407 29.4835H718.158V63.1471H723.614V42.3741C723.614 41.0676 723.614 39.5869 723.57 37.7579C723.527 36.8433 723.439 36.1466 723.396 35.624H723.527C723.788 36.9304 724.094 37.8885 724.312 38.4982L734.437 63.06H738.278L748.316 38.2805C748.534 37.7143 748.753 36.582 748.971 35.624H749.102C748.971 38.1063 748.884 40.3273 748.84 41.6773V63.0165H754.644V29.3964H746.701L738.06 50.5178ZM760.144 38.8902H765.817V63.0165H760.144V38.8902ZM763.024 28.6996C762.064 28.6996 761.278 29.048 760.624 29.6577C759.969 30.2674 759.62 31.0513 759.62 32.0094C759.62 32.9239 759.969 33.7078 760.624 34.3175C761.278 34.9272 762.064 35.232 763.024 35.232C763.984 35.232 764.813 34.8836 765.424 34.3175C766.079 33.7078 766.428 32.9239 766.428 32.0094C766.428 31.0948 766.079 30.311 765.424 29.6577C764.857 29.048 764.028 28.6996 763.024 28.6996ZM785.937 38.6724C784.889 38.4547 783.798 38.324 782.751 38.324C780.176 38.324 777.819 38.8902 775.855 40.0224C773.891 41.1547 772.32 42.7225 771.316 44.6822C770.269 46.6855 769.745 48.9936 769.745 51.6501C769.745 53.9582 770.269 56.005 771.273 57.8776C772.276 59.7067 773.673 61.1874 775.55 62.189C777.339 63.1907 779.434 63.7132 781.791 63.7132C784.497 63.7132 786.81 63.1471 788.643 62.1019L788.686 62.0584V56.8325L788.468 57.0067C787.639 57.6163 786.679 58.1389 785.719 58.4438C784.715 58.7922 783.798 58.9664 783.013 58.9664C780.743 58.9664 778.954 58.3131 777.688 56.876C776.379 55.4824 775.724 53.5663 775.724 51.1711C775.724 48.6887 776.379 46.729 777.732 45.2919C779.085 43.8548 780.874 43.1144 783.056 43.1144C784.889 43.1144 786.766 43.7241 788.468 44.9435L788.686 45.1177V39.5869L788.643 39.5434C787.901 39.2386 787.072 38.8902 785.937 38.6724ZM804.66 38.4982C803.263 38.4982 801.954 38.9337 800.819 39.8482C799.859 40.6321 799.205 41.7644 798.637 43.1144H798.594V38.8902H792.92V63.0165H798.594V50.692C798.594 48.6016 799.03 46.8597 799.99 45.5968C800.95 44.2903 802.172 43.637 803.656 43.637C804.18 43.637 804.704 43.7677 805.358 43.8548C805.969 44.029 806.406 44.2032 806.711 44.4209L806.929 44.5951V38.9337L806.799 38.8902C806.406 38.6289 805.62 38.4982 804.66 38.4982ZM820.11 38.3676C816.138 38.3676 812.952 39.5434 810.726 41.8515C808.457 44.1596 807.366 47.3387 807.366 51.3453C807.366 55.0905 808.501 58.1389 810.683 60.36C812.865 62.5374 815.833 63.6697 819.542 63.6697C823.427 63.6697 826.525 62.4939 828.751 60.1422C831.021 57.7905 832.112 54.655 832.112 50.7791C832.112 46.9468 831.064 43.8983 828.926 41.6773C826.875 39.4563 823.863 38.3676 820.11 38.3676ZM824.649 56.9196C823.601 58.2696 821.943 58.9228 819.892 58.9228C817.84 58.9228 816.182 58.2696 815.004 56.8325C813.825 55.4824 813.258 53.5227 813.258 51.0404C813.258 48.471 813.869 46.5113 815.004 45.1177C816.182 43.7241 817.797 43.0273 819.848 43.0273C821.856 43.0273 823.427 43.6806 824.561 45.0306C825.696 46.3806 826.307 48.3404 826.307 50.9098C826.22 53.5227 825.74 55.5695 824.649 56.9196ZM844.768 48.9065C842.979 48.1662 841.844 47.6 841.321 47.121C840.884 46.6855 840.666 46.0758 840.666 45.2919C840.666 44.6387 840.928 43.9854 841.582 43.5499C842.237 43.1144 842.979 42.8967 844.07 42.8967C845.03 42.8967 846.034 43.0709 846.994 43.3322C847.954 43.5935 848.827 43.9854 849.526 44.508L849.744 44.6822V39.3692L849.613 39.3257C848.958 39.0644 848.085 38.8031 847.038 38.5853C845.99 38.4111 845.03 38.324 844.245 38.324C841.539 38.324 839.313 38.9773 837.567 40.4144C835.821 41.7644 834.992 43.5935 834.992 45.7274C834.992 46.8597 835.167 47.8613 835.56 48.6887C835.952 49.5162 836.52 50.3001 837.305 50.9533C838.091 51.563 839.226 52.2598 840.797 52.913C842.106 53.4792 843.11 53.9147 843.721 54.2631C844.332 54.6115 844.725 55.0034 845.03 55.3082C845.248 55.6566 845.379 56.0921 845.379 56.6583C845.379 58.2696 844.157 59.0535 841.67 59.0535C840.71 59.0535 839.706 58.8793 838.527 58.4873C837.349 58.0954 836.258 57.5293 835.341 56.876L835.123 56.7018V62.2326L835.254 62.2761C836.083 62.6681 837.087 62.9294 838.309 63.2342C839.531 63.452 840.622 63.6262 841.582 63.6262C844.507 63.6262 846.907 62.9729 848.609 61.5358C850.355 60.1422 851.271 58.3567 851.271 56.0486C851.271 54.4373 850.835 53.0001 849.875 51.9114C848.609 50.8662 847.038 49.7775 844.768 48.9065ZM866.241 38.3676C862.269 38.3676 859.083 39.5434 856.858 41.8515C854.632 44.1596 853.497 47.3387 853.497 51.3453C853.497 55.0905 854.632 58.1389 856.814 60.36C858.996 62.5374 861.964 63.6697 865.674 63.6697C869.558 63.6697 872.657 62.4939 874.882 60.1422C877.152 57.7905 878.243 54.655 878.243 50.7791C878.243 46.9468 877.196 43.8983 875.057 41.6773C873.006 39.4563 869.994 38.3676 866.241 38.3676ZM870.736 56.9196C869.689 58.2696 868.03 58.9228 865.979 58.9228C863.884 58.9228 862.269 58.2696 861.091 56.8325C859.913 55.4824 859.345 53.5227 859.345 51.0404C859.345 48.471 859.956 46.5113 861.091 45.1177C862.269 43.7241 863.884 43.0273 865.936 43.0273C867.9 43.0273 869.514 43.6806 870.649 45.0306C871.784 46.3806 872.395 48.3404 872.395 50.9098C872.395 53.5227 871.827 55.5695 870.736 56.9196ZM908.575 43.5499V38.8902H902.858V31.7481L902.683 31.7916L897.272 33.403L897.141 33.4465V38.8902H888.587V35.8417C888.587 34.4481 888.936 33.3594 889.547 32.6626C890.158 31.9658 891.074 31.6174 892.209 31.6174C892.995 31.6174 893.824 31.7916 894.74 32.1836L894.959 32.3142V27.3932L894.828 27.3496C894.042 27.0883 892.995 26.9141 891.642 26.9141C889.939 26.9141 888.456 27.3061 887.103 27.9593C885.75 28.6996 884.746 29.7013 884.004 31.0513C883.262 32.3578 882.869 33.8384 882.869 35.5369V38.8902H878.898V43.5064H882.869V63.0165H888.587V43.5499H897.141V55.9615C897.141 61.0567 899.541 63.6262 904.342 63.6262C905.127 63.6262 905.957 63.4955 906.742 63.3649C907.572 63.1907 908.183 62.9729 908.532 62.7987L908.575 62.7552V58.0954L908.357 58.2696C908.008 58.4873 907.702 58.6615 907.179 58.7922C906.742 58.9228 906.349 58.9664 906.044 58.9664C904.909 58.9664 904.124 58.7051 903.556 58.0518C903.033 57.4422 902.771 56.4405 902.771 54.9598V43.5499H908.575Z" fill="#E3E4E6" fill-opacity="0.55"/>
<path d="M645.012 18.1607H671.765V44.8564H645.012V18.1607Z" fill="#E3E4E6" fill-opacity="0.55"/>
<path d="M674.558 18.1607H701.312V44.8564H674.558V18.1607Z" fill="#E3E4E6" fill-opacity="0.55"/>
<path d="M645.012 47.6436H671.765V74.3393H645.012V47.6436Z" fill="#E3E4E6" fill-opacity="0.55"/>
<path d="M674.558 47.6436H701.312V74.3393H674.558V47.6436Z" fill="#E3E4E6" fill-opacity="0.55"/>
</g>
<g clip-path="url(#clip2_77_280)">
<path d="M1171.69 70.6267L1186.1 54.6606L1171.69 38.6923H1186.9L1194.04 46.4487L1200.91 38.6923H1215.59L1201.24 54.5947L1215.79 70.6267H1200.51L1193.44 62.8066L1186.43 70.6267H1171.69Z" fill="#E3E4E6" fill-opacity="0.55"/>
<path d="M1171.69 31.5337H1155.36V38.6922H1171.69V49.4807H1155.36V59.3832H1171.69V70.6266H1143.36V20.3215H1171.69V31.5337Z" fill="#E3E4E6" fill-opacity="0.55"/>
<path d="M1131.41 20.3214V40.9087H1131.28C1128.63 37.9114 1125.33 36.8698 1121.49 36.8698C1113.64 36.8698 1107.72 42.134 1105.64 49.094C1103.27 41.4251 1097.16 36.7261 1088.1 36.7261C1080.75 36.7261 1074.94 39.9812 1071.91 45.2855V38.6929H1056.7V31.5352H1073.29V20.3214H1043.14V70.6273H1056.7V49.4807H1070.21C1069.81 51.0342 1069.59 52.6973 1069.59 54.4523C1069.59 64.946 1077.72 72.309 1088.1 72.309C1096.83 72.309 1102.58 68.27 1105.63 60.9063H1094.01C1092.44 63.1184 1091.25 63.7755 1088.1 63.7755C1084.46 63.7755 1081.32 60.6426 1081.32 56.9289H1104.97C1106 65.2638 1112.59 72.4519 1121.63 72.4519C1125.53 72.4519 1129.09 70.5614 1131.28 67.3692H1131.41V70.6258H1143.36V20.3214H1131.41ZM1081.7 49.6311C1082.45 46.4359 1084.97 44.3476 1088.1 44.3476C1091.56 44.3476 1093.94 46.3715 1094.57 49.6311C1094.84 49.6311 1081.7 49.6311 1081.7 49.6311ZM1124.16 62.9673C1119.75 62.9673 1117.02 58.9217 1117.02 54.6975C1117.02 50.1822 1119.4 45.8403 1124.16 45.8403C1129.09 45.8403 1131.06 50.1822 1131.06 54.6975C1131.06 58.9794 1128.98 62.9673 1124.16 62.9673Z" fill="#E3E4E6" fill-opacity="0.55"/>
</g>
<defs>
<clipPath id="clip0_77_280">
<rect width="194.464" height="60.5" fill="white" transform="translate(0 16)"/>
</clipPath>
<clipPath id="clip1_77_280">
<rect width="263.607" height="56.1786" fill="white" transform="translate(645.012 18.1607)"/>
</clipPath>
<clipPath id="clip2_77_280">
<rect width="172.857" height="51.8571" fill="white" transform="translate(1043.14 20.3214)"/>
</clipPath>
</defs>
</svg>
