<svg width="321" height="69" viewBox="0 0 321 69" fill="none" xmlns="http://www.w3.org/2000/svg">
<path fill-rule="evenodd" clip-rule="evenodd" d="M171.124 68.6469C174.646 68.1509 177.852 67.1904 181.021 65.7692C183.785 64.5296 186.551 62.6768 188.79 60.8114C191.057 58.9227 193.139 56.5872 194.882 54.1861C201.61 44.9163 203.112 31.3034 198.271 20.8225C194.62 12.9203 189.554 7.61031 181.526 3.50554C179.748 2.59607 177.559 1.77788 175.4 1.19807C174.208 0.877792 173.052 0.636703 171.853 0.448099C168.044 -0.150315 164.38 -0.148555 160.572 0.448269C157.242 0.970191 153.805 2.02135 150.896 3.50585C146.094 5.95565 143.126 8.25754 139.917 11.731C131.022 21.3584 128.914 36.8699 134.4 48.7231C135.518 51.1401 138.489 56.0712 140.417 57.7632C140.92 58.2047 140.97 58.2757 141.398 58.7361C143.738 61.2535 147.484 63.9592 151.398 65.7765C154.391 67.1665 157.943 68.1786 161.297 68.6495C164.633 69.1177 167.789 69.1176 171.124 68.6469Z" fill="#E3E4E6" fill-opacity="0.55"/>
<path fill-rule="evenodd" clip-rule="evenodd" d="M280.755 22.3827C280.707 20.0624 280.586 18.3594 278.501 17.7997C276.366 17.2266 274.591 18.7666 274.591 20.792V48.2249C274.591 50.4124 276.75 51.9721 278.934 51.0557C281.064 50.1618 280.743 47.625 280.743 45.1119C280.743 39.9891 280.757 34.8642 280.743 29.7416C280.736 27.798 280.442 26.8365 283.426 24.7551C284.933 23.7039 286.758 22.6079 289.261 22.7015C294.927 22.9138 294.671 27.6372 294.671 32.66C294.671 37.732 294.532 42.9904 294.665 48.0382C294.704 49.5336 295.019 49.9256 295.86 50.6452C296.636 51.3104 297.774 51.4943 298.872 51.1093C301.131 50.3173 300.823 47.8084 300.823 45.3064C300.823 40.1831 300.829 35.0594 300.823 29.9363C300.82 27.7417 300.404 27.0533 303.36 24.8096C304.759 23.7474 306.757 22.6915 309.138 22.6915C315.979 22.6915 314.847 29.831 314.847 35.5785C314.847 37.1358 314.66 48.4287 315.028 49.4168C316.022 52.0798 321 52.2546 321 47.8357V27.4069C321 12.3766 304.055 16.8127 300.523 23.1424L300.194 22.6284C298.294 19.0486 296.563 17.2899 291.223 17.2899C289.062 17.2899 286.8 18.0534 285.201 18.932C282.384 20.4807 282.35 21.131 280.755 22.3827Z" fill="#E3E4E6" fill-opacity="0.55"/>
<path fill-rule="evenodd" clip-rule="evenodd" d="M59.6011 32.6601C60.1668 31.8533 60.5556 31.5265 61.263 30.7015C61.7755 30.1039 62.411 29.4379 62.9005 28.8145L64.6271 26.8218C64.9615 26.4458 65.1621 26.3189 65.4859 25.9242C65.8264 25.509 65.9237 25.3407 66.2934 24.9693C70.6653 20.5747 66.4493 16.8561 63.3082 17.3488C61.5314 17.6274 60.2314 19.5354 59.3317 20.6169C58.2341 21.9365 57.0501 23.1675 55.999 24.5219C55.5207 25.1381 50.0406 31.7884 49.3655 32.0276V11.8423C49.3657 9.45265 49.6409 7.74947 48.2444 6.2427C45.7243 3.52304 40.6842 4.92566 40.6026 9.30443C40.4454 17.7442 40.6072 27.5528 40.6072 36.1621C40.6072 38.7859 40.1206 47.3839 41.2276 48.9793C42.3129 50.5435 44.0854 51.2778 46.0264 50.8517C47.6729 50.4902 49.0205 49.0782 49.287 47.4398C49.7863 44.3699 48.6059 42.6435 50.0459 41.4065C51.2318 40.3879 52.0234 38.8656 53.4505 38.0617L59.1556 46.4317C59.9821 47.6171 61.1616 49.6927 62.2816 50.3474C64.1001 51.4105 66.3743 51.0558 67.6005 49.7997C68.8484 48.5213 69.6798 46.6351 68.4966 44.5943L59.6011 32.6601Z" fill="#E3E4E6" fill-opacity="0.55"/>
<path fill-rule="evenodd" clip-rule="evenodd" d="M78.8026 31.0549C78.7606 28.9486 80.2043 26.937 81.2569 25.9414C85.9638 21.489 95.088 24.5924 94.8943 31.0549H78.8026ZM78.8702 37.0098C83.1874 36.3821 98.849 37.8465 101.289 36.408C104.224 34.6772 103.455 31.0372 102.276 27.7498C100.253 22.1084 95.8603 18.2657 89.9299 17.2091C80.8807 15.5969 71.7355 21.034 69.9766 30.7506C67.3562 45.2258 79.7514 54.3332 93.9404 50.5509C96.6156 49.8379 100.662 48.5585 100.202 45.357C99.9858 43.8514 98.8314 42.878 97.3341 42.5316C95.638 42.1391 94.4304 43.1181 93.0283 43.6076C86.0378 46.0486 79.9868 43.2291 78.8702 37.0098Z" fill="#E3E4E6" fill-opacity="0.55"/>
<path fill-rule="evenodd" clip-rule="evenodd" d="M252.686 22.886C259.404 21.5138 264.054 26.8116 264.77 32.5319C265.621 39.3242 262.036 45.135 256.452 46.1384C242.459 48.6534 239.489 25.582 252.686 22.886ZM237.872 34.0221C237.872 44.0059 244.283 51.6806 253.818 51.6806H255.393C264.748 51.6806 271.383 43.7941 271.325 34.4104C271.183 11.3256 237.872 11.9489 237.872 34.0221Z" fill="#E3E4E6" fill-opacity="0.55"/>
<path fill-rule="evenodd" clip-rule="evenodd" d="M5.83968 17.7568C4.48269 17.8271 -0.0651074 17.3025 0.000707003 21.5712C0.0658777 25.7846 4.33561 25.3058 5.83968 25.3837C6.38937 28.7234 5.43852 39.983 6.01492 44.3025C6.7746 49.995 11.5322 52.0819 17.8469 51.2305C20.6313 50.855 22.9968 49.4656 22.1126 46.2622C21.0742 42.5004 17.7437 44.5305 15.8187 42.9538C14.0137 41.4752 14.6696 37.2705 14.6696 34.6057C14.6696 32.2533 14.3993 27.4445 14.7385 25.3837C16.4487 25.2951 21.8076 26.2361 21.7843 21.5707C21.7611 16.9392 16.5967 17.853 14.7385 17.7568C14.4203 15.824 15.014 13.0191 14.417 11.2563C13.0889 7.3341 7.3164 7.66979 6.13142 11.2226C5.56983 12.9067 6.15057 15.868 5.83968 17.7568Z" fill="#E3E4E6" fill-opacity="0.55"/>
<path fill-rule="evenodd" clip-rule="evenodd" d="M108.606 17.7568C107.276 17.8257 102.74 17.3103 102.812 21.5703C102.883 25.7843 107.07 25.3042 108.606 25.3837C109.147 28.6673 108.22 39.6779 108.811 44.2749C109.546 49.9971 114.304 52.0611 120.614 51.234C123.422 50.8658 125.813 49.4707 124.908 46.2377C123.867 42.5173 120.701 44.5385 118.576 42.9653C116.824 41.6681 117.436 36.9594 117.436 34.6058C117.436 32.2533 117.166 27.4445 117.505 25.3837C119.31 25.2902 124.598 26.2097 124.576 21.5701C124.554 16.9005 119.244 17.847 117.505 17.7568C117.194 15.8681 117.775 12.9067 117.213 11.2226C115.994 7.56581 110.194 7.43574 108.929 11.2563C108.336 13.0462 108.926 15.8175 108.606 17.7568Z" fill="#E3E4E6" fill-opacity="0.55"/>
<path fill-rule="evenodd" clip-rule="evenodd" d="M207.994 33.633V35.1893C207.994 44.1061 214.951 51.6806 223.894 51.6806C227.233 51.6806 229.064 51.6226 232.141 50.1545C233.181 49.6589 233.779 49.2307 234.641 48.5386C235.391 47.9356 236.311 47.4825 236.392 46.0904C236.546 43.4477 233.427 42.4695 231.409 43.9814C229.142 45.679 228.028 46.2792 224.682 46.2792C211.092 46.2792 210.551 22.6915 225.075 22.6915C231.258 22.6915 231.381 26.7387 234.509 25.6457C236.912 24.8059 237.665 21.6144 232.155 18.8514C222.841 14.1808 207.994 19.9074 207.994 33.633Z" fill="#E3E4E6" fill-opacity="0.55"/>
<path fill-rule="evenodd" clip-rule="evenodd" d="M26.1008 47.6411C26.6222 50.1578 30.0029 52.1011 32.6911 50.3261C35.4426 48.5094 34.7504 45.597 34.7504 41.8044C34.7504 38.6516 34.9523 22.4735 34.6826 20.8108C34.2356 18.0544 30.8934 16.2978 27.9673 18.0273C25.3618 19.5675 25.9893 23.2475 25.9893 26.6289C25.9893 29.6806 25.7756 46.0706 26.1008 47.6411Z" fill="#E3E4E6" fill-opacity="0.55"/>
</svg>
