<svg width="618" height="230" viewBox="0 0 618 230" fill="none" xmlns="http://www.w3.org/2000/svg">
<path d="M48.7213 143.435C48.7213 135.896 48.5901 129.564 48.1797 123.915H62.4541L63.1312 133.62H63.5302C66.7578 128.497 72.6822 122.429 83.725 122.429C92.3464 122.429 99.0729 127.288 101.897 134.548H102.173C104.461 130.915 107.147 128.223 110.242 126.344C113.878 123.786 118.062 122.429 123.439 122.429C134.347 122.429 145.38 129.834 145.38 150.853V189.481H129.228V153.264C129.228 142.368 125.459 135.896 117.514 135.896C111.862 135.896 107.684 139.939 105.937 144.653C105.534 146.255 105.129 148.287 105.129 150.161V189.481H88.9729V151.504C88.9729 142.368 85.3421 135.896 77.6598 135.896C71.4792 135.896 67.3062 140.745 65.8114 145.318C65.1432 146.932 64.8708 148.823 64.8708 150.7V189.481H48.7213V143.435Z" fill="#BABABA" fill-opacity="0.58"/>
<path d="M192.159 157.449C180.441 157.176 169.273 159.73 169.273 169.692C169.273 176.153 173.455 179.122 178.699 179.122C185.285 179.122 190.14 174.8 191.62 170.091C192.019 168.875 192.159 167.539 192.159 166.461V157.449ZM208.32 173.734C208.32 179.651 208.587 185.435 209.255 189.482H194.309L193.237 182.216H192.829C188.787 187.337 181.921 190.959 173.455 190.959C160.253 190.959 152.851 181.411 152.851 171.441C152.851 154.872 167.512 146.537 191.76 146.67V145.594C191.76 141.284 190.003 134.147 178.423 134.147C171.957 134.147 165.229 136.171 160.788 138.992L157.559 128.223C162.405 125.256 170.887 122.429 181.248 122.429C202.257 122.429 208.32 135.77 208.32 150.029V173.734Z" fill="#BABABA" fill-opacity="0.58"/>
<path d="M219.759 143.435C219.759 135.896 219.619 129.564 219.232 123.915H233.757L234.564 133.756H234.973C237.799 128.633 244.936 122.429 255.839 122.429C267.287 122.429 279.127 129.834 279.127 150.579V189.481H262.572V152.468C262.572 143.036 259.064 135.896 250.049 135.896C243.46 135.896 238.871 140.609 237.128 145.593C236.591 147.073 236.455 149.092 236.455 150.969V189.481H219.759V143.435Z" fill="#BABABA" fill-opacity="0.58"/>
<path d="M334.364 151.242C334.364 149.904 334.231 148.287 333.955 146.932C332.475 140.484 327.233 135.228 319.689 135.228C309.053 135.228 303.123 144.653 303.123 156.904C303.123 168.875 309.053 177.634 319.56 177.634C326.277 177.634 332.208 173.053 333.82 165.915C334.231 164.439 334.364 162.816 334.364 161.071V151.242ZM350.916 97.5789V171.035C350.916 177.764 351.195 185.042 351.456 189.482H336.656L335.981 179.122H335.707C331.804 186.388 323.859 190.959 314.305 190.959C298.684 190.959 286.308 177.634 286.308 157.449C286.164 135.497 299.893 122.429 315.648 122.429C324.664 122.429 331.131 126.2 334.089 131.065H334.364V97.5789H350.916Z" fill="#BABABA" fill-opacity="0.58"/>
<path d="M362.628 189.481V123.915H379.331V189.481H362.628Z" fill="#BABABA" fill-opacity="0.58"/>
<path d="M391.032 145.057C391.032 136.171 390.899 129.834 390.503 123.915H404.909L405.436 136.423H405.984C409.216 127.147 416.881 123.915 423.899 123.915C425.504 123.915 426.448 123.645 427.787 123.915V138.463C426.448 138.191 424.972 137.923 422.949 137.923C414.997 137.923 409.612 143.036 408.136 150.43C407.875 151.916 407.599 153.675 407.599 155.561V189.481H391.032V145.057Z" fill="#BABABA" fill-opacity="0.58"/>
<path d="M435.472 189.481V123.915H452.153V189.481H435.472Z" fill="#BABABA" fill-opacity="0.58"/>
<mask id="mask0_123_277" style="mask-type:luminance" maskUnits="userSpaceOnUse" x="249" y="39" width="321" height="67">
<path d="M556.061 54.5773C547.8 45.1507 539.012 49.416 532.033 52.884C529.099 54.3347 507.899 66.3533 507.899 66.3533C496.284 71.144 487.239 65.9173 483.687 61.5173C483.32 61.0533 483.003 60.6173 482.763 60.192L481.943 58.7613C480.673 56.616 479.151 54.1907 477.283 51.8C476.283 50.5027 475.168 49.2067 473.94 47.9813C465.997 39.9547 453.292 34.3387 432.06 44.5427C422.012 50.368 389.263 69.08 389.263 69.08C376.965 74.1467 367.545 67.9733 364.493 63.448C364.359 63.2773 364.224 63.0747 364.137 62.9027L363.736 62.2173L361.659 58.8267C360.769 57.4253 359.785 55.984 358.652 54.5053C357.643 53.2147 356.52 51.9293 355.301 50.692C347.407 42.716 334.775 37.112 313.732 47.1213C301.005 54.3853 271.411 71.3107 271.411 71.3107C271.404 71.32 271.404 71.32 271.401 71.32C259.223 78.28 249.737 83.696 249.737 83.696L260.945 97.4591C265.66 101.954 274.528 109.325 288.244 103.11C288.244 103.11 326.097 81.1893 326.245 81.1253C358.608 63.364 374.584 80.3347 381.637 91.6453C381.883 91.9987 382.085 92.3813 382.303 92.7253L382.32 92.7413C382.404 92.8787 382.464 93.0067 382.535 93.136L383.339 94.444C386.771 99.6596 392.204 103.027 398.668 102.873C402.235 102.801 404.655 101.636 408.18 99.6804L444.805 78.436C444.828 78.424 444.847 78.412 444.883 78.4027C477.648 60.4267 493.888 78.508 500.824 89.8187C501.363 90.7973 501.98 91.728 502.603 92.6C506.036 97.2569 510.775 100.306 516.789 100.16C520.76 100.079 525.216 97.6945 525.875 97.2569L569.791 71.916C569.791 71.916 565.299 65.14 556.061 54.5773Z" fill="white"/>
</mask>
<g mask="url(#mask0_123_277)">
<path d="M556.061 54.5773C547.8 45.1507 539.012 49.416 532.033 52.884C529.099 54.3347 507.899 66.3533 507.899 66.3533C496.284 71.144 487.239 65.9173 483.687 61.5173C483.32 61.0533 483.003 60.6173 482.763 60.192L481.943 58.7613C480.673 56.616 479.151 54.1907 477.283 51.8C476.283 50.5027 475.168 49.2067 473.94 47.9813C465.997 39.9547 453.292 34.3387 432.06 44.5427C422.012 50.368 389.263 69.08 389.263 69.08C376.965 74.1467 367.545 67.9733 364.493 63.448C364.359 63.2773 364.224 63.0747 364.137 62.9027L363.736 62.2173L361.659 58.8267C360.769 57.4253 359.785 55.984 358.652 54.5053C357.643 53.2147 356.52 51.9293 355.301 50.692C347.407 42.716 334.775 37.112 313.732 47.1213C301.005 54.3853 271.411 71.3107 271.411 71.3107C271.404 71.32 271.404 71.32 271.401 71.32C259.223 78.28 249.737 83.696 249.737 83.696L260.945 97.4591C265.66 101.954 274.528 109.325 288.244 103.11C288.244 103.11 326.097 81.1893 326.245 81.1253C358.608 63.364 374.584 80.3347 381.637 91.6453C381.883 91.9987 382.085 92.3813 382.303 92.7253L382.32 92.7413C382.404 92.8787 382.464 93.0067 382.535 93.136L383.339 94.444C386.771 99.6596 392.204 103.027 398.668 102.873C402.235 102.801 404.655 101.636 408.18 99.6804L444.805 78.436C444.828 78.424 444.847 78.412 444.883 78.4027C477.648 60.4267 493.888 78.508 500.824 89.8187C501.363 90.7973 501.98 91.728 502.603 92.6C506.036 97.2569 510.775 100.306 516.789 100.16C520.76 100.079 525.216 97.6945 525.875 97.2569L569.791 71.916C569.791 71.916 565.299 65.14 556.061 54.5773Z" fill="url(#paint0_linear_123_277)"/>
</g>
<defs>
<linearGradient id="paint0_linear_123_277" x1="276.56" y1="138.396" x2="618.477" y2="-19.5093" gradientUnits="userSpaceOnUse">
<stop stop-color="#BABABA"/>
<stop offset="0.224719" stop-color="#BABABA"/>
<stop offset="0.393258" stop-color="#BABABA"/>
<stop offset="0.52809" stop-color="#BABABA"/>
<stop offset="0.646067" stop-color="#BABABA"/>
<stop offset="0.764045" stop-color="#BABABA"/>
<stop offset="1" stop-color="#BABABA"/>
</linearGradient>
</defs>
</svg>
